<svg width="14" height="14" viewBox="0 0 14 14" fill="none" xmlns="http://www.w3.org/2000/svg">
<path d="M11.9219 6.48047H3.92245L8.71034 2.32422C8.78691 2.25723 8.74042 2.13281 8.63925 2.13281H7.42929C7.37597 2.13281 7.32538 2.15195 7.28574 2.18613L2.11913 6.66914C2.07181 6.71016 2.03386 6.76087 2.00785 6.81783C1.98184 6.8748 1.96838 6.93669 1.96838 6.99932C1.96838 7.06194 1.98184 7.12383 2.00785 7.1808C2.03386 7.23776 2.07181 7.28847 2.11913 7.32949L7.31581 11.8398C7.33632 11.8576 7.36093 11.8672 7.38691 11.8672H8.63788C8.73906 11.8672 8.78554 11.7414 8.70898 11.6758L3.92245 7.51953H11.9219C11.982 7.51953 12.0312 7.47031 12.0312 7.41016V6.58984C12.0312 6.52969 11.982 6.48047 11.9219 6.48047Z" fill="#131313"/>
</svg>
