<?xml version="1.0" encoding="utf-8"?>
<!-- Generator: Adobe Illustrator 24.2.0, SVG Export Plug-In . SVG Version: 6.00 Build 0)  -->
<svg version="1.1" id="レイヤー_1" xmlns="http://www.w3.org/2000/svg" xmlns:xlink="http://www.w3.org/1999/xlink" x="0px"
	 y="0px" viewBox="0 0 2500 2500" style="enable-background:new 0 0 2500 2500;" xml:space="preserve">
<style type="text/css">
	.st0{fill:#03B398;}
</style>
<g>
	<path class="st0" d="M1740.9,1375c0,44.7,39.6,42.7,71.1,43.7c6.1,0,10.2,1,12.2,3.1c2,2,4.1,6.1,4.1,10.2s-2,7.1-4.1,9.2
		c-2,2-7.1,3-13.2,3h-66.1v30.5h66.1c21.1,0,36.5-5.3,45.3-16.4v-56.9c-0.5-0.7-1.1-1.3-1.6-2c-8.1-7.1-20.3-11.2-39.6-11.2h-18.3
		c-5.1,0-9.2-1-13.2-2c-4.1-2-7.1-5.1-7.1-10.2s2-8.1,5.1-11.2c3.1-2,7.1-2,13.2-2h61.6v-30.5h-66.7
		C1754.1,1332.3,1740.9,1354.7,1740.9,1375z"/>
	<path class="st0" d="M1681.9,1388.2h-18.3c-5.1,0-9.2-1-13.2-2c-4.1-2-7.1-5.1-7.1-10.2s1-8.1,5.1-11.2c3.1-2,7.1-2,13.2-2h63
		v-30.5h-68.1c-36.6,0-48.8,22.4-48.8,42.7c0,44.7,39.6,42.7,71.2,43.7c6.1,0,10.2,1,12.2,3.1c2,2,4.1,6.1,4.1,10.2s-2,7.1-4.1,9.2
		c-3.1,2-7.1,3-13.2,3h-66.1v30.5h66.1c34.5,0,53.9-14.2,53.9-44.7c-0.1-14.3-4.2-23.5-10.3-30.6
		C1713.4,1392.3,1701.2,1388.2,1681.9,1388.2z"/>
	<polygon class="st0" points="1477.6,1474.6 1591.4,1474.6 1591.4,1445.2 1511.1,1445.2 1511.1,1416.7 1589.4,1416.7 1589.4,1388.2 
		1511.1,1388.2 1511.1,1361.8 1591.4,1361.8 1591.4,1332.3 1477.6,1332.3 	"/>
	<path class="st0" d="M1458.3,1370.9c0-16.3-6.1-25.4-17.3-31.5c-11.2-6.1-24.4-7.1-41.7-7.1H1321v142.3h34.5v-51.8h36.6
		c12.2,0,19.3,1,24.4,6.1c6.1,7.1,6.1,19.3,6.1,28.5v17.3h33.5v-27.4c0-13.2-1-19.3-5.1-26.4c-3.1-4.1-9.1-9.2-17.3-12.2
		C1443,1405.5,1458.3,1393.3,1458.3,1370.9z M1413.6,1391.3c-5.1,2-10.2,2-16.3,2l-41.7,1v-32.5h41.7c6.1,0,12.2,0,16.3,3.1
		c4,2,7.1,6.1,7.1,12.2S1417.7,1388.2,1413.6,1391.3z"/>
	<path class="st0" d="M1247.9,1332.3h-108.8l-43.7,46.8l-41.7-46.8H916.5v142.3h135.2l43.7-46.8l41.7,46.8h66.1v-47.8h42.7
		c29.5,0,59-8.1,59-47.8C1304.8,1340.5,1274.3,1332.3,1247.9,1332.3z M1034.4,1445.2h-84.3H950v-28.5h0.1h75.1v-28.4H950v-26.4h0.1
		v-0.1h85.4l37.6,41.7L1034.4,1445.2z M1169.6,1347.6v114.8l-52.9-59L1169.6,1347.6L1169.6,1347.6z M1247.9,1398.4h-44.7v-36.6h44.7
		c12.2,0,20.3,5.1,20.3,17.3C1268.2,1391.3,1260.1,1398.4,1247.9,1398.4z"/>
	<rect x="1332.3" y="1087.4" class="st0" width="34.5" height="142.3"/>
	<polygon class="st0" points="1151.3,1200.2 1072,1200.2 1072,1171.7 1150.3,1171.7 1150.3,1142.3 1072,1142.3 1072,1116.9 
		1151.3,1116.9 1151.3,1087.4 1037.5,1087.4 1037.5,1229.7 1151.3,1229.7 	"/>
	<path class="st0" d="M1209.2,1177.8h0.1h36.6c12.2,0,20.3,1,25.4,6.1c6.1,7.1,5.1,19.3,5.1,27.4v18.3h34.5v-28.5
		c0-12.2-1-18.3-6.1-25.4c-3.1-4.1-9.2-9.2-16.3-12.2c9.1-4.1,24.4-15.2,24.4-37.6c0-16.3-7.1-25.4-18.3-32.5
		c-11.2-6.1-23.4-6.1-40.6-6.1h-78.3v142.3h33.5V1177.8z M1209.2,1116.9h41.7c6.1,0,13.2,0,17.3,2c4.1,3,6.1,7.1,6.1,13.2
		s-2,11.2-6.1,13.2c-5.1,3.1-10.1,3.1-17.3,3.1h-41.7V1116.9z"/>
	<path class="st0" d="M977.5,1230.7L977.5,1230.7h34.6v-142.3h-55.9l-41.7,96.6l-44.7-96.6h-54.9v134.2L757,1088.4h-50.8l-61,142.3
		h36.6l13.2-31.5h71.1l13.2,31.5h69.1v-111.8l49.8,111.8h29.5l49.8-111.8V1230.7z M707.1,1167.7l23.4-55.9l23.4,55.9H707.1z"/>
	<path class="st0" d="M1900.1,750.1l-1300-0.2c-55.2,0-100,44.8-100,100l-0.1,800c0,55.2,44.8,100,100,100l1300,0.2
		c55.2,0,100-44.8,100-100l0.1-800C2000.1,794.9,1955.3,750.1,1900.1,750.1z M872.4,1233.7v24.4H757.5l-12.2-32.5h-29.5l-13.2,32.5
		h-59v-104.7l41.7-94.5h88.4l12.2,23.4v-23.4h103.7l23.4,50.8l22.4-50.8h330.3c15.2,0,28.4,3.1,38.6,11.2v-11.2h90.5v11.2
		c15.2-8.1,34.5-11.2,56.9-11.2h131.1l12.2,23.4v-23.4h96.6l14.2,23.4v-23.4h94.5v199.2h-95.5l-18.3-30.5v30.5h-118.9l-13.2-32.5
		h-29.5l-13.2,32.5h-62c-24.4,0-42.7-6.1-54.9-12.2v12.2h-147.4v-45.7c0-6.1-1-7.1-5.1-7.1h-5.1v52.9H952.6v-25.4l-10.2,25.4h-60
		L872.4,1233.7z M1856.5,1458.3l-0.2,35.7c-13.2,6.1-31.5,9.1-49.8,9.1h-88.4v-12.2c-10.2,8.1-28.5,12.2-45.7,12.2h-278.5v-45.7
		c0-6.1-1-6.1-6.1-6.1h-5.1v51.8h-91.5v-53.9c-15.2,7.1-32.5,7.1-47.8,7.1h-10.2v46.8h-111.8l-26.4-30.5l-29.5,30.5H885.6v-199.2
		h183l26.4,30.5l28.5-30.5h123c14.2,0,37.6,2,47.8,12.2v-12.2h109.8c11.2,0,32.5,2,46.8,12.2v-12.2h165.7v12.2
		c9.2-8.1,26.4-12.2,41.7-12.2h92.5v12.2c10.2-7.1,24.4-12.2,42.7-12.2h63v28.4h1.4v30.5h-1.4v38.6c5.2,6.8,8.6,15.6,8.6,28.5
		C1865.1,1441.8,1862.2,1451.2,1856.5,1458.3z"/>
	<path class="st0" d="M1451.2,1229.7h39.6l13.2-31.5h71.1l13.2,31.5h69.1V1123l64,106.7h48.8v-142.3h-34.5v98.6l-60-98.6h-52.9
		v134.2l-56.9-134.2h-50.8l-48.8,111.8H1451c-9.1,0-18.3-2-23.4-7.1c-6.1-7.1-9.2-18.3-9.2-33.5s3.1-26.4,9.2-32.5
		c7.1-6.1,14.2-8.1,26.4-8.1h32.5v-30.5H1454c-23.4,0-41.7,5.1-51.8,16.3c-15.2,15.2-18.3,34.6-18.3,55.9c0,25.4,6.1,41.7,17.3,53.9
		C1413.6,1225.6,1434.9,1229.7,1451.2,1229.7z M1534.5,1120.4l23.4,55.9h-46.8L1534.5,1120.4z"/>
</g>
</svg>
