<?xml version="1.0" encoding="utf-8"?>
<!-- Generator: Adobe Illustrator 24.0.3, SVG Export Plug-In . SVG Version: 6.00 Build 0)  -->
<svg version="1.1" id="レイヤー_1" xmlns="http://www.w3.org/2000/svg" xmlns:xlink="http://www.w3.org/1999/xlink" x="0px"
	 y="0px" viewBox="0 0 2500 2500" style="enable-background:new 0 0 2500 2500;" xml:space="preserve">
<style type="text/css">
	.st0{fill-rule:evenodd;clip-rule:evenodd;fill:#03B398;}
</style>
<g>
	<path class="st0" d="M1350.7,1086.8c-21.3-36.9-49.9-69.5-83.7-95.4c-33.9-26-72.6-45-113.8-56.1c-41.3-11-84.3-13.9-126.7-8.3
		c-42.3,5.6-83.2,19.4-120.2,40.8c-37,21.4-69.4,49.8-95.4,83.7c-25.9,33.8-45.1,72.7-56.1,113.8c-11,41.1-13.9,84.4-8.3,126.7
		c5.6,42.4,19.4,83.2,40.8,120.2c21.4,37,49.8,69.4,83.7,95.4c33.9,26,72.6,45,113.8,56.1c41.3,11,84.3,13.9,126.7,8.3
		c42.4-5.6,83.2-19.4,120.2-40.8c37-21.4,69.4-49.8,95.4-83.7c26-33.9,45-72.6,56.1-113.8c11-41.1,13.9-84.4,8.3-126.7
		C1385.9,1164.8,1372,1123.7,1350.7,1086.8z M992.1,1404.5c-19.2-9.6-36.7-22.8-51.2-38.6s-26-34.4-33.8-54.5
		c-7.8-20-11.8-41.5-11.8-63c0-21.6,4-42.9,11.8-63c7.8-20.1,19.2-38.6,33.8-54.5c14.5-15.9,31.9-29,51.2-38.6V1404.5z M1232,1312
		c-7.9,20.3-19.6,38.8-34.4,54.8c-14.8,15.9-32.4,29-52,38.5v-313.8c19.6,9.5,37.2,22.6,52,38.5v0c14.8,16,26.4,34.6,34.4,54.8
		c7.9,20.2,12,41.9,12,63.6C1244,1270.2,1240,1291.8,1232,1312z"/>
	<path class="st0" d="M1900,750H600c-55.2,0-100,44.8-100,100v800c0,55.2,44.8,100,100,100h1300c55.2,0,100-44.8,100-100V850
		C2000,794.8,1955.2,750,1900,750z M1770.1,1294.1c-5.9,44.5-20.4,87.5-42.9,126.4c-22.4,38.8-52.5,73.1-88.2,99.6
		c-35.7,26.6-76.9,45.4-110.2,57.1c-33.3,11.7-58.8,16.2-84.4,16.2h-389c-25.6,0-51.1-4.5-84.4-16.2
		c-33.3-11.7-74.5-30.5-110.2-57.1s-65.8-60.9-88.1-99.6c-22.4-38.9-37-81.8-42.9-126.4c-5.8-44.5-2.8-89.8,8.8-133.2
		c11.7-43.4,31.7-84,59-119.7c27.2-35.5,61.5-65.6,100.4-86.9c38.9-21.3,82.4-33.7,109.4-40.4s37.5-6.7,48.1-6.7h389
		c16.2,0,32.3-3.2,59.3,4.2c27,7.3,64.5,21.5,100.6,43.4c36,21.9,70.6,51.5,97.9,86.7c27.3,35.3,47.5,76.2,59.1,119.4
		C1773,1204.4,1775.9,1249.6,1770.1,1294.1z"/>
</g>
</svg>
