<?xml version="1.0" encoding="utf-8"?>
<!-- Generator: Adobe Illustrator 24.0.3, SVG Export Plug-In . SVG Version: 6.00 Build 0)  -->
<svg version="1.1" id="レイヤー_1" xmlns="http://www.w3.org/2000/svg" xmlns:xlink="http://www.w3.org/1999/xlink" x="0px"
	 y="0px" viewBox="0 0 2500 2500" style="enable-background:new 0 0 2500 2500;" xml:space="preserve">
<style type="text/css">
	.st0{fill:#03B398;}
</style>
<g>
	<path class="st0" d="M1696.4,1220.8c14.3-4.3,26.5-21.5,26.5-37.4c0-14.5-9.5-29.8-22.7-36.6c-5.2-2.5-13.7-3.1-54.6-3.1h-48.6
		l-1,4.5c-1.5,6.2-0.4,72.4,1.4,74C1599.6,1224.4,1688.5,1223.1,1696.4,1220.8z"/>
	<path class="st0" d="M1709,1273.6L1709,1273.6c-8.5-3.9-12.4-4.1-60.2-4.1h-51.3l-1.2,4.3c-1.9,7.7-1.4,75.1,0.8,79.2
		c1.9,3.5,4.6,3.7,47.3,3.7c56.7,0,64.7-1.4,76.9-13.6c7.4-7.4,9.1-10.7,11-20.3C1736.5,1300.9,1727.6,1282,1709,1273.6z"/>
	<path class="st0" d="M1900,750H600c-55.2,0-100,44.8-100,100v800c0,55.2,44.8,100,100,100h1300c55.2,0,100-44.8,100-100V850
		C2000,794.8,1955.2,750,1900,750z M991.9,1204.7c0,105.2,0,106.7-4.3,118.7c-11.4,32.3-30,52.7-62.6,67.8
		c-11.4,5.2-23.8,9.1-51.3,15.7c-16.1,3.9-65.5,6.4-103.6,5c-35.8-1.2-47.6-2.3-80.4-7.6c-38.2-6.2-44.2-7.4-50.5-10.1l-6.6-2.7v-30
		c0-23.2,0.6-30.4,2.5-31.2c1.4-0.4,7.9,1.7,14.5,5c6.4,3.1,12.8,5.8,13.9,5.8c1.4,0,5,1.2,8.3,2.7c21.9,9.7,72.8,20.5,96.8,20.5
		c12.8,0,34.9-5,46.7-10.7c13.2-6.2,28.9-21.5,34.1-33.3c8.7-19.6,9.7-31.8,9.7-129.2c0-50.4,0.6-92.2,1.4-92.8
		c0.8-0.8,30.6-1.2,66.2-1l65.1,0.6V1204.7z M1420.7,1393.7c-3.9,1.9-12.6,3.9-45.3,9.5c-7.4,1.2-17,3.1-21.3,4.1
		c-4.3,1-25.4,2.7-46.9,3.9c-41.6,2.3-103,0.2-121.6-4.1c-5.2-1.4-15.3-3.7-22.3-5.2c-73-16.8-119.7-58.1-130.9-115.8
		c-3.7-18-3.5-54.6,0.2-72.4c4.8-22.7,19.2-49.6,34.7-65.3c32-32,81.3-50.9,150.3-57.9l0,0c13.4-1.4,34.5-2.5,46.9-2.7
		c20.9-0.2,79.2,4.1,90.6,6.8c2.7,0.6,12.2,2.3,21.3,3.9c33.5,5.4,39.7,6.8,44.2,9.7c4.1,2.7,4.3,3.9,4.3,31.8c0,18-0.8,29.2-2.1,30
		c-1,0.8-4.6,0-8.1-1.5c-41.2-19.8-86.2-30.4-126.8-30.4c-60.4,0-101.5,26-117.6,74.6c-5.8,17.6-5.4,60.8,0.6,78.8
		c10.7,30.8,31.4,51.9,62.4,63.3c13.7,5,40.1,9.9,53.4,9.9c13.2,0,50.9-5.2,64.7-8.9c20.3-5.4,31.6-9.1,36.6-11.6
		c2.7-1.5,6.2-2.7,7.6-2.7c1.4,0,7.7-2.7,14.1-5.8c6.4-3.3,12.4-5.4,13.4-4.8c1.2,0.8,1.9,14.1,1.9,31
		C1424.7,1390,1424.5,1391.6,1420.7,1393.7z M1859.7,1357.7c-5.6,11-23.6,28.1-36.2,34.3c-24.8,12-20.9,11.8-190,12.6
		c-109.4,0.6-155.5,0.2-158.4-1.4c-3.9-2.1-3.9-2.9-3.9-153c0-118.7,0.6-150.9,2.5-151.6c4.1-1.7,290.3-1.2,300.6,0.6
		c43.4,7.4,68.2,28.1,72.8,61c5.4,38.3-17.6,70.9-57.1,80.9c-4.8,1.4-9.1,3.1-9.3,4.1c-0.4,1,3.9,2.9,9.1,4.1
		c29,6.8,50.7,18.4,62.6,33.5C1869.2,1304,1872.1,1333.7,1859.7,1357.7z"/>
</g>
</svg>
