<?xml version="1.0" encoding="utf-8"?>
<!-- Generator: Adobe Illustrator 24.0.3, SVG Export Plug-In . SVG Version: 6.00 Build 0)  -->
<svg version="1.1" id="レイヤー_1" xmlns="http://www.w3.org/2000/svg" xmlns:xlink="http://www.w3.org/1999/xlink" x="0px"
	 y="0px" viewBox="0 0 2500 2500" style="enable-background:new 0 0 2500 2500;" xml:space="preserve">
<style type="text/css">
	.st0{fill:#03B398;}
</style>
<title>mc_vrt_rgb_pos</title>
<g>
	<path class="st0" d="M1464.3,1529c-11.9-0.7-22.2,8.4-22.9,20.3c0,0.6-0.1,1.1,0,1.7c0.2,11.9,9.9,21.4,21.7,21.2
		c11.4-0.1,20.8-9,21.5-20.4C1485.3,1539.9,1476.2,1529.7,1464.3,1529z"/>
	<path class="st0" d="M1608.9,1529.2c-11.9-0.7-22.2,8.4-22.9,20.3c0,0.6-0.1,1.1,0,1.7c0.2,11.9,9.9,21.4,21.7,21.2
		c11.4-0.1,20.8-9,21.5-20.4C1629.9,1540.1,1620.8,1529.9,1608.9,1529.2z"/>
	<path class="st0" d="M1670.9,1581c0.1-0.2,0.1-0.5,0-0.7c-0.3-0.1-0.6-0.1-0.9,0l-1.6-0.4v1.8h1.6c0.3,0.1,0.6,0.1,0.9,0
		C1671,1581.4,1671,1581.2,1670.9,1581z"/>
	<path class="st0" d="M1671.7,1577.2c-0.7-0.3-1.4-0.5-2.2-0.4c-0.7,0-1.5,0.2-2.2,0.4c-0.7,0.3-1.3,0.7-1.8,1.2
		c-1.9,2.1-1.9,5.4,0,7.5c0.5,0.5,1.1,0.9,1.8,1.2c0.7,0.3,1.5,0.5,2.2,0.4c0.7,0,1.4-0.2,2.1-0.4c0.6-0.3,1.2-0.7,1.7-1.2
		c1.9-2.1,1.9-5.4,0-7.5C1672.9,1577.9,1672.3,1577.4,1671.7,1577.2z M1670.9,1585.2l-2-2.5h-0.7v2.5h-1.4v-6.6l3.1-0.1
		c0.7,0,1.4,0.2,1.9,0.6c0.5,0.4,0.7,1,0.7,1.6c0,0.5-0.2,1-0.5,1.3c-0.4,0.4-1,0.6-1.6,0.7l2.2,2.5H1670.9z"/>
	<path class="st0" d="M1253.7,1525.8h-0.3c-10-0.3-18.4,7.4-19,17.4h37.4c0,0,0,0,0,0C1271.6,1533.4,1263.4,1525.6,1253.7,1525.8z"
		/>
	<path class="st0" d="M1025.5,1529.2c-11.9-0.7-22.2,8.4-22.9,20.3h-0.1c0,0.6-0.1,1.2,0,1.8c0.2,11.9,10,21.3,21.9,21
		c11.4-0.1,20.8-9,21.5-20.4C1046.5,1540.1,1037.4,1529.9,1025.5,1529.2z"/>
	<path class="st0" d="M1900,750H600c-55.2,0-100,44.8-100,100v800c0,55.2,44.8,100,100,100h1300c55.2,0,100-44.8,100-100V850
		C2000,794.8,1955.2,750,1900,750z M972.8,1540.3v44.9l-15.7,0.3v-39.8c0-12.1-5.1-18.9-15.7-18.9c-1,0-2,0-3,0.1
		c-9.2,1.2-15.7,9.7-14.5,18.9v39.7h-15.7v-39.8c0-12.1-5.2-18.9-15.6-18.9c-1.1-0.1-2.1,0-3.2,0.1c-9.2,1.3-15.6,9.7-14.3,18.9
		v39.4h-15.7v-71.5h15.6v8.8c4.6-7,12.6-11,20.9-10.6c9.6-0.4,18.7,4.5,23.6,12.7c5.4-8.5,15.1-13.4,25.1-12.7
		c1.1-0.1,2.3-0.1,3.4,0C962.7,1512.9,973.8,1525.7,972.8,1540.3z M1045,1584.9v-8.7c-5.4,6.9-13.7,10.8-22.4,10.5
		c-20.7,0-37.4-16.7-37.4-37.4c0-20.7,16.7-37.4,37.4-37.4c8.7-0.3,17.1,3.6,22.4,10.5v-8.7h15.6v35.8l0,35.5H1045z M1106.3,1587
		c-11.1,0.3-21.9-2.9-31-9.3l7.5-12.1c6.9,5.1,15.2,7.7,23.8,7.5c10.6,0,16.3-3.1,16.3-8.7c0-4-4-6.3-12.6-7.5l-7.5-1
		c-16-2.2-24.7-9.4-24.7-21.1c0-14.2,11.8-22.9,29.9-22.9c10.2-0.4,20.4,2.2,29.2,7.5l-6.9,12.6c-6.8-3.9-14.6-6-22.4-6.1
		c-8.5,0-13.6,3.6-13.6,8.4s5.4,6.1,12.1,7l7.5,1c15.6,2.2,25,7.8,25,21.4C1139,1577.3,1127,1587,1106.3,1587z M1189.1,1587.3
		c-18.4,0-24.8-9.9-24.8-26.5v-32.9h-14.5v-14.2h14.2V1492h15.7v21.7h25.6l0.1,14.2H1180v32.6c0,7.2,2.8,12,10.3,12
		c4.9-0.2,9.6-1.6,13.8-4l4.5,13.3C1202.7,1585.4,1196,1587.4,1189.1,1587.3z M1287.8,1555.5h-53.1c1.2,10.7,10.7,18.4,21.4,17.5
		c7.6-0.1,14.9-2.7,20.8-7.5l7.5,11.5c-8.4,6.8-18.9,10.3-29.7,9.7c-20.7,0.3-37.6-16.2-37.9-36.9c-0.3-20.7,16.2-37.6,36.9-37.9
		l0.2,0.1c20.1,0,34,15,34,37.4C1287.8,1551.6,1287.8,1553.5,1287.8,1555.5z M1344,1528.5c-3.1-1.2-6.4-1.8-9.7-1.8
		c-9.9,0-15,6.6-15,18.4v40.1h-15.6v-71.5h15.4v8.7c3.9-6.7,11.1-10.7,18.9-10.5l-0.3-0.3c3.8,0,7.5,0.7,11.1,1.9L1344,1528.5z
		 M1391.3,1572.1c6.8-0.1,13.3-2.3,18.7-6.4l7.5,12.6c-7.2,6-16.4,9-25.7,8.5c-1.1,0.1-2.2,0.1-3.4,0c-19.9-0.7-35.5-17.5-34.8-37.4
		v-0.3c0-1.1,0-2.3,0-3.4c1.1-19.9,18.2-35.2,38.1-34c9.3-0.5,18.5,2.6,25.7,8.5l-7.5,12.6c-5.4-4.1-11.9-6.4-18.7-6.4
		c-11.2,0.9-20.1,9.8-21,21C1369.3,1560,1378.7,1571,1391.3,1572.1z M1499.4,1549.3v35.6h-15.6v-8.7c-5.4,6.9-13.7,10.8-22.4,10.5
		c-20.7,0-37.4-16.7-37.4-37.4c0-20.7,16.7-37.4,37.4-37.4c8.7-0.3,17.1,3.6,22.4,10.5v-8.7h15.6V1549.3z M1560.1,1528.5
		c-3.1-1.2-6.4-1.8-9.7-1.8c-9.9,0-15,6.6-15,18.4v40.1h-15.6v-71.5h15.4v8.7c3.9-6.7,11.1-10.7,18.9-10.5l-0.3-0.3
		c3.8,0,7.5,0.7,11.1,1.9L1560.1,1528.5z M1643.5,1549.5v35.5h-15v-8.7c-5.4,6.9-13.7,10.8-22.4,10.5c-20.7,0-37.4-16.7-37.4-37.4
		c0-20.7,16.7-37.4,37.4-37.4c8.7-0.3,17.1,3.6,22.4,10.5V1485h15V1549.5z M1660.1,1347.3h-1.6v-8.7h-3.8v-1.8h8.9v1.8h-3.5V1347.3z
		 M1676.2,1584.6c-0.4,0.8-0.9,1.6-1.6,2.2c-0.7,0.6-1.5,1.1-2.3,1.5c-0.9,0.4-1.9,0.6-2.8,0.6c-2.9,0-5.5-1.7-6.7-4.3
		c-0.8-1.8-0.8-3.8,0-5.5c0.4-0.8,0.9-1.6,1.6-2.2c0.7-0.6,1.5-1.1,2.3-1.5c0.9-0.4,1.9-0.5,2.9-0.5c0,0,0,0-0.1,0h0.2
		c-0.1,0-0.1,0-0.2,0c1,0,1.9,0.2,2.8,0.5c0.9,0.4,1.6,0.9,2.3,1.5c0.7,0.6,1.2,1.4,1.6,2.2C1677,1580.9,1677,1582.9,1676.2,1584.6z
		 M1677.4,1347.3l-1.6,0.1v-7.9l-2.9,6.8h-2l-2.9-6.8v7.9h-1.9v-10.5h2.4l3.1,7.5l3.1-7.5h2.7V1347.3z M1416.4,1449.8
		c-62.8,0-120.6-21.5-166.4-57.6c-45.8,36.1-103.6,57.6-166.4,57.6c-148.8,0-269.4-120.6-269.4-269.4S934.8,911,1083.6,911
		c62.8,0,120.6,21.5,166.4,57.6c45.8-36.1,103.6-57.6,166.4-57.6c148.8,0,269.4,120.6,269.4,269.4S1565.2,1449.8,1416.4,1449.8z"/>
	<path class="st0" d="M1250.9,969.4l-0.9-0.7l-0.9,0.7c-31,24.5-56.6,56.3-74.1,91.9c-18.2,37.2-27.4,77.2-27.4,119.1
		c0,41.9,9.2,81.9,27.4,119.1c17.5,35.6,43.1,67.4,74.1,91.9l0.9,0.7l0.9-0.7c31.2-24.6,57-56.4,74.6-91.9
		c18.6-37.3,28-77.4,28-119.2c0-41.7-9.4-81.8-28-119.1C1307.9,1025.8,1282.1,994,1250.9,969.4z M1322.9,1298.2
		c-17.3,34.8-42.5,65.9-72.9,90.2c-30.2-24.2-55.2-55.3-72.3-90.2c-18-36.8-27.1-76.4-27.1-117.8c0-41.4,9.1-81,27.1-117.8
		c17.1-34.9,42.1-66,72.3-90.2c30.4,24.3,55.6,55.4,72.9,90.2c18.4,36.9,27.7,76.5,27.7,117.8
		C1350.5,1221.7,1341.2,1261.3,1322.9,1298.2z"/>
</g>
</svg>
