<?xml version="1.0" encoding="utf-8"?>
<!-- Generator: Adobe Illustrator 24.0.3, SVG Export Plug-In . SVG Version: 6.00 Build 0)  -->
<svg version="1.1" id="レイヤー_1" xmlns="http://www.w3.org/2000/svg" xmlns:xlink="http://www.w3.org/1999/xlink" x="0px"
	 y="0px" viewBox="0 0 2500 2500" style="enable-background:new 0 0 2500 2500;" xml:space="preserve">
<style type="text/css">
	.st0{fill:#03B398;}
</style>
<g>
	<path class="st0" d="M2125.2,770.5H555.1c-40.7,0-73.6,33-73.6,73.6v860.4c0,40.7,33,73.6,73.6,73.6h1570.1
		c40.7,0,73.6-33,73.6-73.6V844.1C2198.8,803.5,2165.9,770.5,2125.2,770.5z M880.2,1436.5l-0.1-0.2L796,1113
		c-54-32.4-100.7-42.4-101.2-42.5l-0.3-0.1l1.9-6.8h153c21.8,0,33.2,9.2,39,16.9c6.2,8.3,7.3,16.8,7.3,16.9l32.9,169.1L939,1319
		l92.1-255.3h104.9l-0.2,0.4l-154.3,372.5H880.2z M1112.5,1436.5l0.1-0.3l60.6-372.5h97.5l-0.1,0.3l-60.6,372.5H1112.5z
		 M1486.8,1414.1c-29.6,18-70,28.8-107.9,28.8c-65.4,0-109.1-20.8-109.5-21.1l-0.2-0.1l0-0.2l14.5-84.1l0.4,0.3
		c14.2,11.4,39.5,20.4,67.8,24.2c29.2,3.9,55.5,1.6,72.3-6.5c12.9-6.2,19.4-15.3,19.4-27.1c0-21.1-23.6-33.6-51-48
		c-18.6-9.8-39.7-21-55.7-36.5c-18.4-17.8-27.4-38.5-27.4-63.4c0-23.8,6.3-44.9,18.6-62.5c10.5-15,25.6-27.7,44.6-37.7
		c33-17.2,72.9-23.3,99.3-23.3c44,0,86.8,16.1,87.3,16.3l0.2,0.1l-13.9,80.6l-0.3-0.2c-37.9-20.9-98.7-22.1-121.8-8.4
		c-9,5.3-13.6,12.7-13.6,22c0,16.6,21.8,28.3,47,41.8c39.3,21.2,88.3,47.6,88.3,106.1C1545.1,1367.7,1513.4,1398,1486.8,1414.1z
		 M1793.5,1436.5l-11.4-55.3h-122.8l-20.2,55.3h-101.7l0.2-0.4l144.6-344.5c0,0,2.3-7.1,8.9-14c6.1-6.4,17.4-14,36.1-14h78.1l0,0.2
		l77.7,372.6H1793.5z"/>
	<polygon class="st0" points="1687.4,1304.3 1766.3,1304.3 1737.9,1166.3 	"/>
</g>
</svg>
