<svg width="16" height="16" viewBox="0 0 16 16" fill="none" xmlns="http://www.w3.org/2000/svg">
<path d="M13.75 1.75H2.25C1.97344 1.75 1.75 1.97344 1.75 2.25V13.75C1.75 14.0266 1.97344 14.25 2.25 14.25H13.75C14.0266 14.25 14.25 14.0266 14.25 13.75V2.25C14.25 1.97344 14.0266 1.75 13.75 1.75ZM10.8672 5.71406L7.57656 10.2766C7.53057 10.3408 7.46994 10.3931 7.3997 10.4291C7.32946 10.4652 7.25162 10.4841 7.17266 10.4841C7.09369 10.4841 7.01586 10.4652 6.94561 10.4291C6.87537 10.3931 6.81474 10.3408 6.76875 10.2766L4.82031 7.57656C4.76094 7.49375 4.82031 7.37813 4.92188 7.37813H5.65469C5.81406 7.37813 5.96562 7.45469 6.05937 7.58594L7.17188 9.12969L9.62813 5.72344C9.72188 5.59375 9.87187 5.51562 10.0328 5.51562H10.7656C10.8672 5.51562 10.9266 5.63125 10.8672 5.71406Z" fill="#131313"/>
</svg>
