<svg width="16" height="16" viewBox="0 0 16 16" fill="none" xmlns="http://www.w3.org/2000/svg">
<path d="M8.80944 8L12.911 3.11094C12.9798 3.02969 12.9219 2.90625 12.8157 2.90625H11.5688C11.4954 2.90625 11.4251 2.93906 11.3766 2.99531L7.99381 7.02812L4.611 2.99531C4.56413 2.93906 4.49381 2.90625 4.41881 2.90625H3.17194C3.06569 2.90625 3.00788 3.02969 3.07663 3.11094L7.17819 8L3.07663 12.8891C3.06123 12.9072 3.05135 12.9293 3.04816 12.9529C3.04497 12.9764 3.04861 13.0004 3.05865 13.022C3.06868 13.0435 3.08469 13.0617 3.10477 13.0745C3.12486 13.0872 3.14817 13.0939 3.17194 13.0938H4.41881C4.49225 13.0938 4.56256 13.0609 4.611 13.0047L7.99381 8.97188L11.3766 13.0047C11.4235 13.0609 11.4938 13.0938 11.5688 13.0938H12.8157C12.9219 13.0938 12.9798 12.9703 12.911 12.8891L8.80944 8Z" fill="#131313"/>
</svg>
