<svg width="14" height="14" viewBox="0 0 14 14" fill="none" xmlns="http://www.w3.org/2000/svg">
<path d="M7.28982 6.73066L3.79939 2.2709C3.75838 2.21758 3.69412 2.1875 3.62713 2.1875H2.57029C2.47869 2.1875 2.4281 2.29277 2.48416 2.36387L6.11267 7L2.48416 11.6361C2.47153 11.6523 2.4637 11.6716 2.46155 11.692C2.45941 11.7123 2.46303 11.7329 2.47202 11.7513C2.481 11.7697 2.49499 11.7852 2.51236 11.796C2.52974 11.8068 2.54981 11.8125 2.57029 11.8125H3.62713C3.69412 11.8125 3.75838 11.7811 3.79939 11.7291L7.28982 7.2707C7.41424 7.11074 7.41424 6.88926 7.28982 6.73066ZM11.4461 6.73066L7.95564 2.2709C7.91463 2.21758 7.85037 2.1875 7.78338 2.1875H6.72654C6.63494 2.1875 6.58435 2.29277 6.64041 2.36387L10.2689 7L6.64041 11.6361C6.62778 11.6523 6.61995 11.6716 6.6178 11.692C6.61566 11.7123 6.61928 11.7329 6.62827 11.7513C6.63725 11.7697 6.65124 11.7852 6.66861 11.796C6.68599 11.8068 6.70607 11.8125 6.72654 11.8125H7.78338C7.85037 11.8125 7.91463 11.7811 7.95564 11.7291L11.4461 7.2707C11.5705 7.11074 11.5705 6.88926 11.4461 6.73066Z" fill="#131313"/>
</svg>
