<svg width="14" height="14" viewBox="0 0 14 14" fill="none" xmlns="http://www.w3.org/2000/svg">
<path d="M2.40625 6.98633C2.40625 7.08687 2.42605 7.18643 2.46453 7.27932C2.50301 7.37221 2.5594 7.45661 2.6305 7.52771C2.70159 7.5988 2.78599 7.6552 2.87888 7.69367C2.97177 7.73215 3.07133 7.75195 3.17188 7.75195C3.27242 7.75195 3.37198 7.73215 3.46487 7.69367C3.55776 7.6552 3.64216 7.5988 3.71325 7.52771C3.78435 7.45661 3.84074 7.37221 3.87922 7.27932C3.9177 7.18643 3.9375 7.08687 3.9375 6.98633C3.9375 6.88578 3.9177 6.78623 3.87922 6.69334C3.84074 6.60045 3.78435 6.51604 3.71325 6.44495C3.64216 6.37385 3.55776 6.31746 3.46487 6.27898C3.37198 6.24051 3.27242 6.2207 3.17188 6.2207C3.07133 6.2207 2.97177 6.24051 2.87888 6.27898C2.78599 6.31746 2.70159 6.37385 2.6305 6.44495C2.5594 6.51604 2.50301 6.60045 2.46453 6.69334C2.42605 6.78623 2.40625 6.88578 2.40625 6.98633ZM6.23438 6.98633C6.23438 7.18938 6.31504 7.38412 6.45862 7.52771C6.6022 7.67129 6.79694 7.75195 7 7.75195C7.20306 7.75195 7.3978 7.67129 7.54138 7.52771C7.68496 7.38412 7.76562 7.18938 7.76562 6.98633C7.76562 6.78327 7.68496 6.58853 7.54138 6.44495C7.3978 6.30137 7.20306 6.2207 7 6.2207C6.79694 6.2207 6.6022 6.30137 6.45862 6.44495C6.31504 6.58853 6.23438 6.78327 6.23438 6.98633ZM10.0625 6.98633C10.0625 7.18938 10.1432 7.38412 10.2867 7.52771C10.4303 7.67129 10.6251 7.75195 10.8281 7.75195C11.0312 7.75195 11.2259 7.67129 11.3695 7.52771C11.5131 7.38412 11.5938 7.18938 11.5938 6.98633C11.5938 6.78327 11.5131 6.58853 11.3695 6.44495C11.2259 6.30137 11.0312 6.2207 10.8281 6.2207C10.6251 6.2207 10.4303 6.30137 10.2867 6.44495C10.1432 6.58853 10.0625 6.78327 10.0625 6.98633Z" fill="#131313"/>
</svg>
