<svg width="16" height="16" viewBox="0 0 16 16" fill="none" xmlns="http://www.w3.org/2000/svg">
<path d="M12.1765 3.07186C10.7046 1.59999 8.30777 1.59999 6.83745 3.07186L2.75933 7.14686C2.73277 7.17342 2.7187 7.20936 2.7187 7.24686C2.7187 7.28436 2.73277 7.3203 2.75933 7.34686L3.33589 7.92342C3.36225 7.94966 3.39792 7.9644 3.43511 7.9644C3.4723 7.9644 3.50797 7.94966 3.53433 7.92342L7.61245 3.84843C8.1187 3.34218 8.79214 3.06405 9.50777 3.06405C10.2234 3.06405 10.8968 3.34218 11.4015 3.84843C11.9078 4.35468 12.1859 5.02811 12.1859 5.74217C12.1859 6.4578 11.9078 7.12967 11.4015 7.63592L7.24527 11.7906L6.57183 12.464C5.94214 13.0937 4.9187 13.0937 4.28902 12.464C3.98433 12.1594 3.81714 11.7547 3.81714 11.3234C3.81714 10.8922 3.98433 10.4875 4.28902 10.1828L8.41245 6.06092C8.51714 5.9578 8.65464 5.89999 8.80152 5.89999H8.80308C8.94995 5.89999 9.08589 5.9578 9.18902 6.06092C9.2937 6.16561 9.34995 6.30311 9.34995 6.44999C9.34995 6.5953 9.29214 6.7328 9.18902 6.83592L5.8187 10.2031C5.79214 10.2297 5.77808 10.2656 5.77808 10.3031C5.77808 10.3406 5.79214 10.3765 5.8187 10.4031L6.39527 10.9797C6.42162 11.0059 6.4573 11.0206 6.49448 11.0206C6.53167 11.0206 6.56735 11.0059 6.5937 10.9797L9.96245 7.61092C10.2734 7.29999 10.4437 6.88749 10.4437 6.44842C10.4437 6.00936 10.2718 5.5953 9.96245 5.28592C9.32027 4.64374 8.27652 4.6453 7.63433 5.28592L7.23433 5.68749L3.51245 9.4078C3.25985 9.65893 3.05961 9.9577 2.92335 10.2868C2.7871 10.6159 2.71754 10.9688 2.7187 11.325C2.7187 12.0484 3.00152 12.7281 3.51245 13.239C4.04214 13.7672 4.73589 14.0312 5.42964 14.0312C6.12339 14.0312 6.81714 13.7672 7.34527 13.239L12.1765 8.41092C12.8875 7.69842 13.2812 6.74999 13.2812 5.74217C13.2828 4.7328 12.889 3.78436 12.1765 3.07186Z" fill="#131313"/>
</svg>
