<svg width="14" height="14" viewBox="0 0 14 14" fill="none" xmlns="http://www.w3.org/2000/svg">
<path d="M6.34371 7C6.34371 7.17405 6.41285 7.34097 6.53592 7.46404C6.65899 7.58711 6.82591 7.65625 6.99996 7.65625C7.174 7.65625 7.34092 7.58711 7.46399 7.46404C7.58706 7.34097 7.65621 7.17405 7.65621 7C7.65621 6.82595 7.58706 6.65903 7.46399 6.53596C7.34092 6.41289 7.174 6.34375 6.99996 6.34375C6.82591 6.34375 6.65899 6.41289 6.53592 6.53596C6.41285 6.65903 6.34371 6.82595 6.34371 7ZM9.07808 7C9.07808 7.17405 9.14722 7.34097 9.27029 7.46404C9.39336 7.58711 9.56028 7.65625 9.73433 7.65625C9.90838 7.65625 10.0753 7.58711 10.1984 7.46404C10.3214 7.34097 10.3906 7.17405 10.3906 7C10.3906 6.82595 10.3214 6.65903 10.1984 6.53596C10.0753 6.41289 9.90838 6.34375 9.73433 6.34375C9.56028 6.34375 9.39336 6.41289 9.27029 6.53596C9.14722 6.65903 9.07808 6.82595 9.07808 7ZM3.60933 7C3.60933 7.17405 3.67847 7.34097 3.80154 7.46404C3.92461 7.58711 4.09153 7.65625 4.26558 7.65625C4.43963 7.65625 4.60655 7.58711 4.72962 7.46404C4.85269 7.34097 4.92183 7.17405 4.92183 7C4.92183 6.82595 4.85269 6.65903 4.72962 6.53596C4.60655 6.41289 4.43963 6.34375 4.26558 6.34375C4.09153 6.34375 3.92461 6.41289 3.80154 6.53596C3.67847 6.65903 3.60933 6.82595 3.60933 7ZM12.6492 4.62656C12.3402 3.89238 11.8972 3.2334 11.3326 2.66738C10.7719 2.10464 10.1063 1.65733 9.37339 1.35078C8.62144 1.03496 7.823 0.875 6.99996 0.875H6.97261C6.1441 0.879102 5.34156 1.04316 4.58687 1.36582C3.86029 1.67552 3.2009 2.12362 2.64546 2.68516C2.08628 3.2498 1.64742 3.90605 1.3439 4.6375C1.02945 5.39492 0.870854 6.20019 0.874955 7.02871C0.879595 7.97818 1.10422 8.91366 1.53121 9.76172V11.8398C1.53121 12.0066 1.59747 12.1666 1.71541 12.2845C1.83335 12.4025 1.99332 12.4688 2.16011 12.4688H4.2396C5.08766 12.8957 6.02314 13.1204 6.97261 13.125H7.00132C7.82027 13.125 8.6146 12.9664 9.36245 12.6561C10.0916 12.3532 10.7548 11.9111 11.3148 11.3545C11.8794 10.7953 12.3238 10.1418 12.6341 9.41309C12.9568 8.6584 13.1209 7.85586 13.125 7.02734C13.1291 6.19473 12.9677 5.38672 12.6492 4.62656ZM10.5834 10.6148C9.62495 11.5637 8.35347 12.0859 6.99996 12.0859H6.97671C6.1523 12.0818 5.33335 11.8768 4.61011 11.4912L4.49527 11.4297H2.57027V9.50469L2.50874 9.38984C2.1232 8.6666 1.91812 7.84766 1.91402 7.02324C1.90855 5.66016 2.42945 4.38047 3.38511 3.4166C4.33941 2.45273 5.61499 1.91953 6.97808 1.91406H7.00132C7.68492 1.91406 8.348 2.04668 8.97281 2.30918C9.58257 2.56484 10.1294 2.93262 10.5998 3.40293C11.0687 3.87187 11.4378 4.42012 11.6935 5.02988C11.9587 5.66152 12.0914 6.33145 12.0886 7.02324C12.0804 8.38496 11.5459 9.66055 10.5834 10.6148Z" fill="#131313"/>
</svg>
