<svg width="25" height="25" viewBox="0 0 20 20" fill="none" xmlns="http://www.w3.org/2000/svg">
<circle cx="10" cy="10" r="10" fill="#C4C4C4"/>
<path d="M10.7083 10L14.2971 5.72207C14.3573 5.65098 14.3067 5.54297 14.2137 5.54297H13.1227C13.0584 5.54297 12.9969 5.57168 12.9545 5.6209L9.99458 9.14961L7.03462 5.6209C6.9936 5.57168 6.93208 5.54297 6.86645 5.54297H5.77544C5.68247 5.54297 5.63188 5.65098 5.69204 5.72207L9.28091 10L5.69204 14.2779C5.67857 14.2938 5.66992 14.3132 5.66713 14.3338C5.66434 14.3544 5.66753 14.3754 5.67631 14.3942C5.68509 14.4131 5.6991 14.429 5.71667 14.4402C5.73424 14.4513 5.75464 14.4571 5.77544 14.457H6.86645C6.93071 14.457 6.99224 14.4283 7.03462 14.3791L9.99458 10.8504L12.9545 14.3791C12.9956 14.4283 13.0571 14.457 13.1227 14.457H14.2137C14.3067 14.457 14.3573 14.349 14.2971 14.2779L10.7083 10Z" fill="white"/>
</svg>
