<svg width="16" height="16" viewBox="0 0 16 16" fill="none" xmlns="http://www.w3.org/2000/svg">
<path d="M8.30156 8.975L8.30625 8.95312C8.39687 8.57969 8.51094 8.11406 8.42188 7.69219C8.3625 7.35938 8.11719 7.22969 7.90781 7.22031C7.66094 7.20937 7.44063 7.35 7.38594 7.55469C7.28281 7.92969 7.375 8.44219 7.54375 9.09531C7.33125 9.60156 6.99219 10.3375 6.74375 10.775C6.28125 11.0141 5.66094 11.3828 5.56875 11.8484C5.55 11.9344 5.57187 12.0437 5.62344 12.1422C5.68125 12.2516 5.77344 12.3359 5.88125 12.3766C5.92812 12.3937 5.98438 12.4078 6.05 12.4078C6.325 12.4078 6.77031 12.1859 7.36406 11.1672C7.45469 11.1375 7.54844 11.1062 7.63906 11.075C8.06406 10.9312 8.50469 10.7812 8.90312 10.7141C9.34375 10.95 9.84531 11.1016 10.1859 11.1016C10.5234 11.1016 10.6562 10.9016 10.7063 10.7812C10.7937 10.5703 10.7516 10.3047 10.6094 10.1625C10.4031 9.95938 9.90156 9.90625 9.12031 10.0031C8.73594 9.76875 8.48438 9.45 8.30156 8.975ZM6.5875 11.3484C6.37031 11.6641 6.20625 11.8219 6.11719 11.8906C6.22187 11.6984 6.42656 11.4953 6.5875 11.3484ZM7.95625 7.66875C8.0375 7.80781 8.02656 8.22813 7.96406 8.44063C7.8875 8.12969 7.87656 7.68906 7.92188 7.6375C7.93437 7.63906 7.94531 7.64844 7.95625 7.66875ZM7.93125 9.55156C8.09844 9.84062 8.30938 10.0891 8.54219 10.2734C8.20469 10.35 7.89687 10.4766 7.62187 10.5891C7.55625 10.6156 7.49219 10.6422 7.42969 10.6672C7.6375 10.2906 7.81094 9.86406 7.93125 9.55156ZM10.3625 10.575C10.3641 10.5781 10.3656 10.5828 10.3562 10.5891H10.3531L10.35 10.5938C10.3375 10.6016 10.2094 10.6766 9.65781 10.4594C10.2922 10.4297 10.3609 10.5734 10.3625 10.575ZM13.3531 4.50938L9.99063 1.14688C9.89688 1.05313 9.77031 1 9.6375 1H3C2.72344 1 2.5 1.22344 2.5 1.5V14.5C2.5 14.7766 2.72344 15 3 15H13C13.2766 15 13.5 14.7766 13.5 14.5V4.86406C13.5 4.73125 13.4469 4.60313 13.3531 4.50938ZM12.3469 5.09375H9.40625V2.15313L12.3469 5.09375ZM12.375 13.875H3.625V2.125H8.34375V5.5C8.34375 5.67405 8.41289 5.84097 8.53596 5.96404C8.65903 6.08711 8.82595 6.15625 9 6.15625H12.375V13.875Z" fill="#131313"/>
</svg>
