<svg width="16" height="16" viewBox="0 0 16 16" fill="none" xmlns="http://www.w3.org/2000/svg">
<path d="M14.5 2.5H1.5C1.22344 2.5 1 2.72344 1 3V13C1 13.2766 1.22344 13.5 1.5 13.5H14.5C14.7766 13.5 15 13.2766 15 13V3C15 2.72344 14.7766 2.5 14.5 2.5ZM13.875 12.375H2.125V11.7516L4.28906 9.18437L6.63438 11.9656L10.2828 7.64062L13.875 11.9V12.375ZM13.875 10.3469L10.3781 6.2C10.3281 6.14062 10.2375 6.14062 10.1875 6.2L6.63438 10.4125L4.38438 7.74531C4.33438 7.68594 4.24375 7.68594 4.19375 7.74531L2.125 10.1984V3.625H13.875V10.3469ZM4.75 7.125C4.93057 7.125 5.10937 7.08943 5.27619 7.02033C5.44301 6.95123 5.59459 6.84995 5.72227 6.72227C5.84995 6.59459 5.95123 6.44301 6.02033 6.27619C6.08943 6.10937 6.125 5.93057 6.125 5.75C6.125 5.56943 6.08943 5.39063 6.02033 5.22381C5.95123 5.05699 5.84995 4.90541 5.72227 4.77773C5.59459 4.65005 5.44301 4.54877 5.27619 4.47967C5.10937 4.41057 4.93057 4.375 4.75 4.375C4.38533 4.375 4.03559 4.51987 3.77773 4.77773C3.51987 5.03559 3.375 5.38533 3.375 5.75C3.375 6.11467 3.51987 6.46441 3.77773 6.72227C4.03559 6.98013 4.38533 7.125 4.75 7.125ZM4.75 5.3125C4.99219 5.3125 5.1875 5.50781 5.1875 5.75C5.1875 5.99219 4.99219 6.1875 4.75 6.1875C4.50781 6.1875 4.3125 5.99219 4.3125 5.75C4.3125 5.50781 4.50781 5.3125 4.75 5.3125Z" fill="#131313"/>
</svg>
