<svg width="14" height="14" viewBox="0 0 14 14" fill="none" xmlns="http://www.w3.org/2000/svg">
<path d="M12.6438 8.55453L11.7483 7.7889C11.7907 7.52914 11.8126 7.2639 11.8126 6.99867C11.8126 6.73344 11.7907 6.4682 11.7483 6.20844L12.6438 5.44281C12.7113 5.38499 12.7597 5.30797 12.7824 5.22201C12.8051 5.13604 12.8011 5.0452 12.7709 4.96156L12.7586 4.92601C12.5121 4.23699 12.143 3.59825 11.669 3.04066L11.6444 3.01195C11.5869 2.94435 11.5103 2.89575 11.4246 2.87256C11.3389 2.84938 11.2482 2.85269 11.1645 2.88207L10.053 3.27719C9.64283 2.94086 9.18482 2.67562 8.68989 2.48969L8.47525 1.32758C8.45905 1.24013 8.41664 1.15969 8.35363 1.09693C8.29063 1.03417 8.21002 0.992063 8.12251 0.976209L8.0856 0.969373C7.37329 0.840857 6.62407 0.840857 5.91177 0.969373L5.87486 0.976209C5.78735 0.992063 5.70674 1.03417 5.64374 1.09693C5.58073 1.15969 5.53832 1.24013 5.52212 1.32758L5.30611 2.49515C4.81513 2.68113 4.35792 2.94622 3.95259 3.27992L2.83286 2.88207C2.74915 2.85246 2.6584 2.84902 2.57268 2.87222C2.48696 2.89542 2.41034 2.94416 2.35298 3.01195L2.32837 3.04066C1.85498 3.59864 1.48588 4.23727 1.23872 4.92601L1.22642 4.96156C1.1649 5.13246 1.21548 5.32386 1.35357 5.44281L2.26001 6.21664C2.21763 6.47367 2.19712 6.73617 2.19712 6.9973C2.19712 7.2598 2.21763 7.5223 2.26001 7.77797L1.35357 8.5518C1.28602 8.60962 1.23768 8.68663 1.21497 8.7726C1.19225 8.85856 1.19625 8.94941 1.22642 9.03305L1.23872 9.06859C1.48618 9.75765 1.85259 10.3934 2.32837 10.9539L2.35298 10.9827C2.41048 11.0503 2.48711 11.0989 2.57277 11.122C2.65844 11.1452 2.74912 11.1419 2.83286 11.1125L3.95259 10.7147C4.36001 11.0496 4.81529 11.3149 5.30611 11.4995L5.52212 12.667C5.53832 12.7545 5.58073 12.8349 5.64374 12.8977C5.70674 12.9604 5.78735 13.0025 5.87486 13.0184L5.91177 13.0252C6.63062 13.1544 7.36675 13.1544 8.0856 13.0252L8.12251 13.0184C8.21002 13.0025 8.29063 12.9604 8.35363 12.8977C8.41664 12.8349 8.45905 12.7545 8.47525 12.667L8.68989 11.5049C9.18462 11.3195 9.64521 11.0534 10.053 10.7174L11.1645 11.1125C11.2482 11.1421 11.339 11.1456 11.4247 11.1224C11.5104 11.0992 11.587 11.0504 11.6444 10.9827L11.669 10.9539C12.1448 10.392 12.5112 9.75765 12.7586 9.06859L12.7709 9.03305C12.8325 8.86488 12.7819 8.67348 12.6438 8.55453ZM10.7776 6.36976C10.8118 6.57621 10.8295 6.78812 10.8295 7.00004C10.8295 7.21195 10.8118 7.42386 10.7776 7.63031L10.6874 8.17855L11.7086 9.05219C11.5538 9.40887 11.3584 9.74652 11.1262 10.0584L9.85747 9.60863L9.42818 9.96137C9.10142 10.2293 8.73775 10.4399 8.344 10.5875L7.8231 10.783L7.57837 12.1092C7.19224 12.153 6.8024 12.153 6.41626 12.1092L6.17154 10.7803L5.65474 10.5821C5.26509 10.4344 4.90279 10.2239 4.57876 9.95726L4.14947 9.60316L2.87251 10.0571C2.64009 9.74398 2.44595 9.40629 2.29009 9.05082L3.32232 8.16898L3.23345 7.62211C3.20064 7.4184 3.18286 7.20785 3.18286 7.00004C3.18286 6.79086 3.19927 6.58168 3.23345 6.37797L3.32232 5.83109L2.29009 4.94926C2.44458 4.59242 2.64009 4.25609 2.87251 3.94301L4.14947 4.39691L4.57876 4.04281C4.90279 3.77621 5.26509 3.56566 5.65474 3.41801L6.1729 3.2225L6.41763 1.89359C6.80181 1.84984 7.19419 1.84984 7.57974 1.89359L7.82447 3.21976L8.34536 3.41527C8.73775 3.56293 9.10279 3.77347 9.42954 4.04144L9.85884 4.39418L11.1276 3.94437C11.36 4.25746 11.5542 4.59515 11.71 4.95062L10.6887 5.82426L10.7776 6.36976ZM7.00005 4.45707C5.67115 4.45707 4.5938 5.53441 4.5938 6.86332C4.5938 8.19222 5.67115 9.26957 7.00005 9.26957C8.32896 9.26957 9.4063 8.19222 9.4063 6.86332C9.4063 5.53441 8.32896 4.45707 7.00005 4.45707ZM8.08286 7.94613C7.94084 8.08856 7.77206 8.2015 7.58623 8.27846C7.4004 8.35542 7.20119 8.39488 7.00005 8.39457C6.59126 8.39457 6.20708 8.23461 5.91724 7.94613C5.77481 7.80411 5.66187 7.63533 5.58491 7.4495C5.50795 7.26367 5.46849 7.06445 5.4688 6.86332C5.4688 6.45453 5.62876 6.07035 5.91724 5.78051C6.20708 5.49066 6.59126 5.33207 7.00005 5.33207C7.40884 5.33207 7.79302 5.49066 8.08286 5.78051C8.22529 5.92253 8.33824 6.09131 8.4152 6.27714C8.49216 6.46297 8.53161 6.66218 8.5313 6.86332C8.5313 7.27211 8.37134 7.65629 8.08286 7.94613Z" fill="#131313"/>
</svg>
