<svg width="16" height="16" viewBox="0 0 16 16" fill="none" xmlns="http://www.w3.org/2000/svg">
<path d="M14.189 5.5172L10.2218 4.94064L8.44834 1.34533C8.39991 1.24689 8.32022 1.16721 8.22178 1.11877C7.97491 0.996893 7.67491 1.09846 7.55147 1.34533L5.77803 4.94064L1.81084 5.5172C1.70147 5.53283 1.60147 5.58439 1.52491 5.66252C1.43235 5.75765 1.38134 5.88564 1.3831 6.01836C1.38486 6.15109 1.43924 6.27768 1.53428 6.37033L4.40459 9.16877L3.72647 13.1203C3.71057 13.2123 3.72074 13.3068 3.75583 13.3932C3.79093 13.4797 3.84953 13.5545 3.92501 13.6094C4.00049 13.6642 4.08982 13.6967 4.18288 13.7034C4.27593 13.71 4.36898 13.6904 4.45147 13.6469L7.99991 11.7813L11.5483 13.6469C11.6452 13.6985 11.7577 13.7156 11.8655 13.6969C12.1374 13.65 12.3202 13.3922 12.2733 13.1203L11.5952 9.16877L14.4655 6.37033C14.5437 6.29377 14.5952 6.19377 14.6108 6.08439C14.653 5.81095 14.4624 5.55783 14.189 5.5172ZM10.3874 8.77502L10.9515 12.061L7.99991 10.511L5.04834 12.0625L5.61241 8.77658L3.22491 6.44845L6.52491 5.96877L7.99991 2.97971L9.47491 5.96877L12.7749 6.44845L10.3874 8.77502Z" fill="#131313"/>
</svg>
