<svg width="16" height="16" viewBox="0 0 16 16" fill="none" xmlns="http://www.w3.org/2000/svg">
<path d="M14.1891 5.51721L10.2219 4.94064L8.44845 1.34533C8.40002 1.24689 8.32033 1.16721 8.22189 1.11877C7.97502 0.996893 7.67501 1.09846 7.55158 1.34533L5.77814 4.94064L1.81095 5.51721C1.70158 5.53283 1.60158 5.58439 1.52501 5.66252C1.33283 5.86096 1.33595 6.17814 1.53439 6.37033L4.4047 9.16877L3.72658 13.1203C3.6797 13.3922 3.86095 13.65 4.13283 13.6969C4.2422 13.7156 4.35314 13.6985 4.45158 13.6469L8.00001 11.7813L11.5485 13.6469C11.6453 13.6985 11.7578 13.7156 11.8656 13.6969C12.1375 13.65 12.3203 13.3922 12.2735 13.1203L11.5953 9.16877L14.4656 6.37033C14.5438 6.29377 14.5953 6.19377 14.611 6.08439C14.6531 5.81096 14.4625 5.55783 14.1891 5.51721Z" fill="#131313"/>
</svg>
