<svg width="16" height="16" viewBox="0 0 16 16" fill="none" xmlns="http://www.w3.org/2000/svg">
<path d="M8.09845 7.17186C8.08675 7.15692 8.07181 7.14484 8.05476 7.13653C8.0377 7.12822 8.01898 7.1239 8.00001 7.1239C7.98104 7.1239 7.96231 7.12822 7.94526 7.13653C7.9282 7.14484 7.91327 7.15692 7.90157 7.17186L6.15158 9.38594C6.13715 9.40436 6.1282 9.42647 6.12575 9.44974C6.1233 9.47301 6.12744 9.4965 6.13771 9.51753C6.14798 9.53856 6.16395 9.55627 6.18382 9.56864C6.20368 9.58101 6.22662 9.58755 6.25002 9.5875H7.4047V13.375C7.4047 13.4438 7.46095 13.5 7.5297 13.5H8.4672C8.53595 13.5 8.5922 13.4438 8.5922 13.375V9.58906H9.75C9.85469 9.58906 9.9125 9.46875 9.84844 9.3875L8.09845 7.17186Z" fill="#131313"/>
<path d="M12.6781 5.72969C11.9625 3.84219 10.1391 2.5 8.00313 2.5C5.86719 2.5 4.04375 3.84063 3.32812 5.72813C1.98906 6.07969 1 7.3 1 8.75C1 10.4766 2.39844 11.875 4.12344 11.875H4.75C4.81875 11.875 4.875 11.8188 4.875 11.75V10.8125C4.875 10.7437 4.81875 10.6875 4.75 10.6875H4.12344C3.59687 10.6875 3.10156 10.4781 2.73281 10.0984C2.36562 9.72031 2.17031 9.21094 2.1875 8.68281C2.20156 8.27031 2.34219 7.88281 2.59687 7.55625C2.85781 7.22344 3.22344 6.98125 3.62969 6.87344L4.22188 6.71875L4.43906 6.14687C4.57344 5.79062 4.76094 5.45781 4.99687 5.15625C5.2298 4.85736 5.50571 4.59461 5.81563 4.37656C6.45781 3.925 7.21406 3.68594 8.00313 3.68594C8.79219 3.68594 9.54844 3.925 10.1906 4.37656C10.5016 4.59531 10.7766 4.85781 11.0094 5.15625C11.2453 5.45781 11.4328 5.79219 11.5672 6.14687L11.7828 6.71719L12.3734 6.87344C13.2203 7.10156 13.8125 7.87187 13.8125 8.75C13.8125 9.26719 13.6109 9.75469 13.2453 10.1203C13.066 10.3007 12.8527 10.4437 12.6178 10.541C12.3828 10.6384 12.1309 10.6882 11.8766 10.6875H11.25C11.1812 10.6875 11.125 10.7437 11.125 10.8125V11.75C11.125 11.8188 11.1812 11.875 11.25 11.875H11.8766C13.6016 11.875 15 10.4766 15 8.75C15 7.30156 14.0141 6.08281 12.6781 5.72969Z" fill="#131313"/>
</svg>
