<svg width="16" height="16" viewBox="0 0 16 16" fill="none" xmlns="http://www.w3.org/2000/svg">
<path d="M9.33331 3.99998V2.66665H6.66665V3.99998H9.33331ZM2.66665 5.33331V12.6666H13.3333V5.33331H2.66665ZM13.3333 3.99998C14.0733 3.99998 14.6666 4.59331 14.6666 5.33331V12.6666C14.6666 13.4066 14.0733 14 13.3333 14H2.66665C1.92665 14 1.33331 13.4066 1.33331 12.6666L1.33998 5.33331C1.33998 4.59331 1.92665 3.99998 2.66665 3.99998H5.33331V2.66665C5.33331 1.92665 5.92665 1.33331 6.66665 1.33331H9.33331C10.0733 1.33331 10.6666 1.92665 10.6666 2.66665V3.99998H13.3333Z" fill="currentColor"/>
</svg>
